<svg xmlns:xlink="http://www.w3.org/1999/xlink" xmlns="http://www.w3.org/2000/svg" id="a" viewBox="0 0 1366 1555" width="1366"  height="1555" >
<svg y="-200">
<path d="M473.99076,973.72964c-.61843,.48376-1.20733,1.03633-1.87891,1.45683-27.33309,17.11312-47.57162,40.98509-64.36115,68.03182-33.26728,53.59132-59.26162,110.51521-77.01427,171.07575-22.30009,76.07382-33.05056,153.45502-24.18281,232.75076,3.2516,29.07603,11.40377,56.87392,26.20685,82.31618,3.47922,5.97982,8.34976,11.30896,13.30872,16.19807,2.35176,2.31872,6.48672,2.75494,9.6933,4.29508,5.90602,2.8365,11.4456,6.79956,17.63,8.62419,17.65691,5.20975,34.57749,.81123,50.47374-6.7947,27.40825-13.11384,54.88936-26.19806,81.52046-40.79083,71.55156-39.20755,139.36395-84.04846,201.32164-137.38932,3.09622-2.66563,5.80379-4.82882,10.26451-2.20435,1.39881,.82293,4.32709-.39612,6.29631-1.2669,1.80674-.79878,3.12021-2.67004,4.90076-3.57969,7.89745-4.03429,9.72553-9.57652,5.4979-17.2382-.74982-1.35894-1.43677-2.75236-2.56939-4.9318,12.00618,1.19946,23.21623,1.65451,34.17733,3.55022,24.227,4.19043,45.61083-1.34238,64.39467-17.05533,10.44786-8.73977,21.45451-17.00748,26.83488-30.30389,.43147-1.0661,2.14377-1.70023,3.36028-2.34864,12.0484-6.42181,14.62128-14.09701,8.74543-26.23132,19.98092-4.92147,21.88971-13.96676,18.68134-25.93453,7.73414-1.69423,15.41938-3.37768,23.81899-5.21765-3.0039,16.80874-.84449,31.00941,10.72528,42.99047-3.69389,3.8139-6.18045,7.90804-3.63596,13.30279,.25495,.54042-.46412,1.52222-.69022,2.31097-2.99076,10.43074-.66562,19.83077,9.10599,23.53106,10.3525,3.92022,11.85084,10.48618,12.67636,19.83183,2.0582,23.30065,5.38948,46.48571,7.68084,69.76934,3.35922,34.13541,2.19517,68.2936,.34196,102.49447-.82673,15.25591,.37066,30.64488,1.0961,45.95212,.36565,7.71499,3.46544,10.44304,11.52263,11.80092-.60754-3.99009-1.20323-7.90242-1.86186-12.22818,28.53579,10.45368,52.12708,2.24581,73.06752-16.21356,16.53211-14.57348,26.15074-33.46908,31.66511-54.559,7.80839-29.86265,4.17744-59.80368-.8249-89.43319-6.27307-37.1563-14.80425-73.92529-17.16364-111.70464-.50375-8.06646,1.02899-14.3944,6.89359-20.18429,7.83276-7.73306,7.9039-13.24097,2.15037-22.7395-3.6412-6.01141-6.88555-12.26327-10.32297-18.43439-2.74083,2.88123-1.85981,6.85059-.07516,10.60351,1.85951,3.91027,4.29512,7.54221,6.36183,11.35923,3.01612,5.57056,2.93405,10.99622-2.29242,15.07813-8.6585,6.76242-11.13246,15.33755-9.28677,25.8693,.95671,5.45885-1.14948,9.45699-6.16617,12.9779-5.38766,3.78155-9.86735,9.11129-13.99537,14.35461-3.29028,4.17904-5.25548,9.37345-8.1688,13.88452-4.53679,7.02481-11.45506,9.64016-19.40087,6.91135-4.64338-1.59467-8.7714-4.63835-13.35351-6.47528-7.77445-3.11659-15.61747-6.15419-23.63465-8.54338-6.50661-1.93915-13.49276-2.31674-19.93719-4.40353-8.06805-2.61277-11.09336-8.72793-9.51636-14.92464,8.77649,0,17.19955,.14961,25.61563-.03068,18.41941-.3946,36.83905-.86227,55.24684-1.59497,1.85807-.07412,3.63611-2.16091,5.45128-3.31358-2.11036-.87624-4.22345-2.5022-6.33047-2.49415-7.65639,.02886-15.3096,.8852-22.96607,.91695-16.57099,.0685-33.14979,.02612-49.70855-.50138-2.75616-.08779-5.42721-2.85124-8.13767-4.37832,2.14118-2.50417,3.81005-6.31519,6.50418-7.28925,12.60005-4.55587,25.1856-8.9269,38.97082-9.52868,14.22853-.62107,28.40361-2.90759,42.53761-4.91843,3.24814-.46204,6.23314-2.77423,9.33923-4.23501-2.98241-4.94493-7.08872-1.45197-10.37664-.95378-22.61811,3.42742-45.29248,5.27567-68.13009,3.23977-2.48269-.22138-6.15964-2.08215-6.81-4.01508-.81374-2.41813,.00311-6.60909,1.77068-8.41056,3.38033-3.44542,7.64652-6.34579,12.04255-8.41496,21.93298-10.32457,45.33508-15.00803,70.71223-16.89903-2.19494-1.54477-3.30326-2.32479-4.79698-3.37601,5.6625-2.10524,11.14127-3.93913,16.42256-6.22892,1.59757-.69276,2.64797-2.64832,3.94899-4.02548-1.3714-1.24305-2.55284-3.0878-4.15672-3.59427-2.71228-.85665-5.68209-1.00686-8.56071-1.20546-7.23396-.4988-14.50284-.61188-21.70954-1.3499-6.11918-.62669-7.36637-3.86091-3.54143-8.74471,4.52365-5.77576,10.96824-8.65396,17.96744-8.35049,9.44757,.40964,18.89173,1.8165,28.23194,3.41269,4.93979,.84419,9.63837,3.06806,10.59507,9.03056,.97447,6.07285-2.70499,9.68004-7.10079,12.76829-2.7141,1.90695-5.57678,3.60232-8.3728,5.39262,3.02599,.76331,5.41157,.34205,7.68608-.41351,10.1611-3.37563,15.72862-9.78377,15.61276-17.80011-.11502-7.95998-5.97819-14.3556-16.17057-17.27215-4.70093-1.34504-9.52167-2.27057-14.22192-3.37077,0-3.14734,.36033-5.88884-.05725-8.50625-3.19348-20.01463-6.10657-40.08789-9.92133-59.98678-9.57376-49.93986-32.75317-92.09016-72.69983-124.32515-5.61641-4.53218-11.44405-8.80228-16.35005-12.56218,0-5.26405-.51309-9.71535,.09042-14.00975,2.37731-16.91544-2.16297-25.06042-17.43605-32.974-4.68575-2.42785-9.17478-6.4411-12.07451-10.83681-4.62493-7.01068-10.0914-12.78075-17.65168-16.03282-8.02098-3.45021-16.4382-5.97899-24.92519-8.99662,.53981-.42703,1.08555-.97671,1.73211-1.35355,37.69812-21.96783,60.15003-54.45473,66.14622-97.69672,6.63052-47.81708,8.00822-95.81923,1.28227-143.74575-5.44103-38.77114-19.09953-74.48018-42.38994-106.236-.42464-.57896-.71299-1.25786-1.06497-1.89013,6.52787,4.64317,11.96981,10.25421,17.87033,15.33223,5.55962,4.78477,11.78676,5.27043,15.90271,2.01191,4.58879-3.63285,6.03574-10.83499,1.84903-16.90408-3.92629-5.69142-9.22049-10.50274-14.26269-15.33607-3.07223-2.94495-6.80643-5.19889-10.24332-7.76321,2.61958-.03964,4.86758,.39601,6.93839,1.2579,7.43379,3.09414,14.74078,6.50186,22.2268,9.45904,5.33785,2.10862,10.41218,1.13441,13.91489-3.63118,3.57811-4.86819,2.52505-10.00257-1.24932-14.17542-2.71661-3.00335-6.18758-5.3941-9.56176-7.70834-2.36182-1.61988-5.12815-2.64949-7.71387-3.94278,4.17964-.11931,8.00564,.7848,11.88243,1.15055,7.1241,.67214,13.39869-3.65715,14.6316-9.75746,1.2292-6.08189-2.28308-11.88526-9.17767-14.2667-3.88119-1.34056-7.99964-2.06199-12.05811-2.80658-8.98285-1.64817-17.9953-3.13485-28.15458-4.88729,6.34596-4.10469,11.04629-7.95558,9.04419-15.15673-1.64366-5.91216-8.02075-9.6328-16.48527-9.74341-3.09318-.0404-6.22509,.10644-9.28198,.55701-12.45117,1.83518-24.88001,3.82112-37.31714,5.75153,5.34005-2.03712,10.82672-3.79302,16.3114-5.55469,4.50816-1.44802,9.29444-2.35855,13.44713-4.49823,4.73153-2.43791,7.46848-7.03172,5.99216-12.44196-1.4704-5.3886-6.05328-7.94327-11.44701-7.79207-3.40417,.09535-6.94036,1.10597-10.12063,2.42295-7.19349,2.97901-14.20302,6.40226-22.50962,10.20424,2.36174-2.87505,3.91141-4.54224,5.21281-6.38479,4.89135-6.92491,4.14146-14.7914-1.76104-19.40575-5.33231-4.16864-12.13108-2.65918-17.83146,3.84606-3.76374,4.29508-7.6447,8.48745-11.47313,12.7258l-1.36958-1.27176c1.50707-2.34143,3.00587-4.68824,4.52289-7.02321,4.33582-6.67353,3.37706-14.053-2.36835-18.16669-5.65293-4.04751-13.35329-2.45109-17.9086,3.97597-2.62838,3.70842-4.73517,7.78493-7.32522,11.5235-.91981,1.3275-2.5744,2.14553-3.89357,3.19617-.35919-.4153-.71831-.8306-1.0775-1.2459,1.2875-1.48991,2.59551-2.96265,3.85841-4.47313,3.62776-4.33871,3.697-11.06833,.1788-15.36838-7.0894-8.66501-18.78756-7.39488-23.68521,2.825-2.49203,5.20014-4.10888,10.8138-6.38491,16.12759-.61741,1.44141-2.1938,2.47186-3.33006,3.69091l-1.30056-1.20922c1.35318-4.10063,2.87506-8.15463,4.02241-12.31206,2.04081-7.39534-.83409-13.35397-7.30092-15.6482-6.64905-2.35885-12.94816,.65915-16.01629,7.75706-.96301,2.22793-1.72368,4.54342-3.04247,8.06011-.55469-11.75661-5.10401-16.68779-13.52138-16.05199-5.68042,.42908-9.81868,4.43888-11.56013,12.04793-1.43214,6.25728-2.2723,12.65009-3.37478,18.98286-2.2966-3.41189-3.30008-6.88989-4.11541-10.41141-1.90324-8.2202-7.75828-12.47792-15.19063-10.93945-6.9721,1.44312-10.76871,7.87113-9.07707,15.79318,1.30618,6.11717,2.91226,12.17027,4.38509,18.25186-1.9141-1.65561-2.96829-3.61333-4.12468-5.50859-2.89837-4.75037-5.23035-10.02755-8.90381-14.08379-6.52195-7.20164-16.35392-4.64488-19.60305,4.55249-.39708,1.12412-.74359,2.26613-1.11349,3.39986-.19983-.64792-.39966-1.29583-.59957-1.94375-4.97722,.54661-11.22979-.53928-14.58533,2.08341-3.60111,2.81459-4.47909,9.1152-6.53899,13.87985-9.65006-4.86914-16.26353-1.88747-20.43092,10.21081-12.99242-2.71142-17.89683,.49417-19.1742,12.53256-10.60479-3.52372-16.12353-.63387-20.45772,10.71253-14.67067-.05798-18.00384,5.40652-13.42815,22.01439-8.87226-5.20011-13.68522-5.56365-18.47343-.91934-5.50944,5.34391-4.67474,11.39215-.85683,17.70449-6.96534,.55758-14.33672-.09045-16.88956,7.98861-2.0136,6.37241,.36124,11.56295,6.42002,15.01916-12.2278,6.2812-13.36004,13.09481-6.13311,21.52113-.31185,6.52483-2.15777,11.87964-.4232,15.53409,4.05585,8.54513,12.45709,5.75514,20.31396,4.69003-.19433,49.74472,21.63506,91.15635,47.23911,131.23938-19.64971,16.66664-21.97561,39.19859-15.0452,57.17367,10.02432,25.99946,31.00318,33.71392,57.3624,31.62729,4.2539,26.34546,18.82123,46.18558,38.26857,63.03282,.82802,.71721,1.90962,2.1587,1.68845,2.91746-3.19431,10.96212-6.59157,21.86493-10.11266,33.34385-3.21732-1.9756-4.90464-3.19283-6.74175-4.11001-11.45172-5.71766-22.52195-12.54137-34.50285-16.78102-20.77064-7.35-37.28559-1.00238-49.543,17.0188-1.28082,1.88318-2.75373,3.64553-3.92181,5.59334-2.65537,4.42806-6.63291,5.84829-11.57331,5.7766-4.96332-.07215-9.98063-.19024-14.88944,.40797-19.55579,2.38327-37.75324,7.99894-51.19995,23.61475-10.15742,11.79591-12.06077,33.86717-4.05331,45.9945Z" style="fill:#fff;"/><path d="M473.99076,973.72964c-8.00746-12.12733-6.10411-34.19859,4.05331-45.9945,13.44671-15.61581,31.64416-21.23148,51.19995-23.61475,4.90881-.59821,9.92612-.48012,14.88944-.40797,4.94039,.07169,8.91793-1.34854,11.57331-5.7766,1.16808-1.94781,2.64099-3.71016,3.92181-5.59334,12.25741-18.02118,28.77237-24.3688,49.543-17.0188,11.9809,4.23964,23.05114,11.06335,34.50285,16.78102,1.83711,.91717,3.52443,2.1344,6.74175,4.11001,3.52109-11.47892,6.91834-22.38173,10.11266-33.34385,.22116-.75876-.86044-2.20025-1.68845-2.91746-19.44733-16.84724-34.01467-36.68735-38.26857-63.03282-26.35922,2.08663-47.33808-5.62782-57.3624-31.62729-6.93042-17.97508-4.60451-40.50702,15.0452-57.17367-25.60405-40.08303-47.43344-81.49466-47.23911-131.23938-7.85687,1.06511-16.25811,3.8551-20.31396-4.69003-1.73458-3.65446,.11134-9.00926,.4232-15.53409-7.22693-8.42632-6.09469-15.23992,6.13311-21.52113-6.05878-3.45621-8.43362-8.64674-6.42002-15.01916,2.55284-8.07906,9.92422-7.43103,16.88956-7.98861-3.81791-6.31234-4.65261-12.36059,.85683-17.70449,4.78821-4.64431,9.60116-4.28077,18.47343,.91934-4.5757-16.60786-1.24252-22.07237,13.42815-22.01439,4.33419-11.3464,9.85293-14.23625,20.45772-10.71253,1.27737-12.0384,6.18178-15.24399,19.1742-12.53256,4.16738-12.09828,10.78086-15.07995,20.43092-10.21081,2.05991-4.76464,2.93788-11.06525,6.53899-13.87985,3.35554-2.62268,9.60811-1.5368,14.58533-2.08341,.19991,.64792,.39974,1.29583,.59957,1.94375,.3699-1.13373,.71641-2.27573,1.11349-3.39986,3.24913-9.19737,13.0811-11.75414,19.60305-4.55249,3.67347,4.05624,6.00544,9.33343,8.90381,14.08379,1.15639,1.89526,2.21058,3.85297,4.12468,5.50859-1.47283-6.08159-3.07891-12.13469-4.38509-18.25186-1.69164-7.92205,2.10497-14.35005,9.07707-15.79318,7.43234-1.53847,13.28739,2.71925,15.19063,10.93945,.81534,3.52152,1.81881,6.99952,4.11541,10.41141,1.10248-6.33277,1.94265-12.72557,3.37478-18.98286,1.74145-7.60905,5.87972-11.61884,11.56013-12.04793,8.41737-.6358,12.96669,4.29539,13.52138,16.05199,1.31878-3.5167,2.07946-5.83219,3.04247-8.06011,3.06813-7.09791,9.36725-10.11592,16.01629-7.75706,6.46683,2.29423,9.34174,8.25286,7.30092,15.6482-1.14735,4.15743-2.66923,8.21143-4.02241,12.31206l1.30056,1.20922c1.13627-1.21905,2.71266-2.2495,3.33006-3.69091,2.27602-5.31379,3.89288-10.92745,6.38491-16.12759,4.89765-10.21988,16.59581-11.49001,23.68521-2.825,3.5182,4.30006,3.44896,11.02967-.1788,15.36838-1.26291,1.51049-2.57091,2.98323-3.85841,4.47313,.35919,.4153,.71831,.8306,1.0775,1.2459,1.31916-1.05065,2.97376-1.86868,3.89357-3.19617,2.59004-3.73857,4.69683-7.81508,7.32522-11.5235,4.55531-6.42705,12.25567-8.02347,17.9086-3.97597,5.74541,4.11369,6.70417,11.49316,2.36835,18.16669-1.51702,2.33497-3.01582,4.68179-4.52289,7.02321l1.36958,1.27176c3.82842-4.23835,7.70939-8.43072,11.47313-12.7258,5.70039-6.50524,12.49915-8.0147,17.83146-3.84606,5.90249,4.61435,6.65239,12.48085,1.76104,19.40575-1.3014,1.84255-2.85107,3.50975-5.21281,6.38479,8.3066-3.80198,15.31613-7.22523,22.50962-10.20424,3.18027-1.31698,6.71646-2.3276,10.12063-2.42295,5.39373-.1512,9.9766,2.40347,11.44701,7.79207,1.47633,5.41024-1.26063,10.00405-5.99216,12.44196-4.15269,2.13968-8.93896,3.05021-13.44713,4.49823-5.48469,1.76167-10.97135,3.51757-16.3114,5.55469,12.43712-1.93042,24.86597-3.91635,37.31714-5.75153,3.05689-.45058,6.1888-.59741,9.28198-.55701,8.46452,.11061,14.84161,3.83125,16.48527,9.74341,2.00209,7.20115-2.69823,11.05204-9.04419,15.15673,10.15928,1.75244,19.17173,3.23912,28.15458,4.88729,4.05847,.74459,8.17692,1.46602,12.05811,2.80658,6.89458,2.38145,10.40686,8.18481,9.17767,14.2667-1.23292,6.10031-7.50751,10.4296-14.6316,9.75746-3.87679-.36575-7.70278-1.26986-11.88243-1.15055,2.58571,1.29329,5.35205,2.3229,7.71387,3.94278,3.37418,2.31424,6.84515,4.70499,9.56176,7.70834,3.77437,4.17285,4.82742,9.30723,1.24932,14.17542-3.50271,4.76559-8.57704,5.7398-13.91489,3.63118-7.48602-2.95718-14.79302-6.36489-22.2268-9.45904-2.0708-.86189-4.31881-1.29754-6.93839-1.2579,3.43689,2.56432,7.17109,4.81826,10.24332,7.76321,5.04221,4.83333,10.3364,9.64465,14.26269,15.33607,4.18671,6.06909,2.73976,13.27123-1.84903,16.90408-4.11595,3.25852-10.34309,2.77286-15.90271-2.01191-5.90052-5.07803-11.34246-10.68906-17.87033-15.33223,.35198,.63227,.64034,1.31117,1.06497,1.89013,23.29041,31.75582,36.94891,67.46486,42.38994,106.236,6.72596,47.92651,5.34825,95.92867-1.28227,143.74575-5.99618,43.24199-28.4481,75.72889-66.14622,97.69672-.64656,.37683-1.1923,.92652-1.73211,1.35355,8.48699,3.01763,16.90421,5.54641,24.92519,8.99662,7.56027,3.25207,13.02674,9.02213,17.65168,16.03282,2.89973,4.39571,7.38876,8.40896,12.07451,10.83681,15.27308,7.91358,19.81336,16.05856,17.43605,32.974-.60351,4.2944-.09042,8.7457-.09042,14.00975,4.906,3.75991,10.73363,8.03,16.35005,12.56218,39.94666,32.23499,63.12607,74.38529,72.69983,124.32515,3.81476,19.89889,6.72785,39.97215,9.92133,59.98678,.41758,2.61741,.05725,5.3589,.05725,8.50625,4.70025,1.1002,9.52099,2.02573,14.22192,3.37077,10.19238,2.91655,16.05554,9.31216,16.17057,17.27215,.11586,8.01633-5.45166,14.42448-15.61276,17.80011-2.27451,.75557-4.66009,1.17683-7.68608,.41351,2.79602-1.7903,5.6587-3.48567,8.3728-5.39262,4.3958-3.08826,8.07526-6.69544,7.10079-12.76829-.95671-5.96251-5.65529-8.18637-10.59507-9.03056-9.34022-1.59619-18.78437-3.00305-28.23194-3.41269-6.9992-.30347-13.44379,2.57473-17.96744,8.35049-3.82493,4.8838-2.57774,8.11802,3.54143,8.74471,7.2067,.73802,14.47558,.8511,21.70954,1.3499,2.87863,.19859,5.84844,.34881,8.56071,1.20546,1.60388,.50647,2.78532,2.35122,4.15672,3.59427-1.30102,1.37717-2.35142,3.33272-3.94899,4.02548-5.28129,2.28978-10.76006,4.12368-16.42256,6.22892,1.49371,1.05122,2.60204,1.83123,4.79698,3.37601-25.37716,1.891-48.77925,6.57446-70.71223,16.89903-4.39603,2.06917-8.66222,4.96954-12.04255,8.41496-1.76757,1.80146-2.58442,5.99243-1.77068,8.41056,.65036,1.93292,4.32732,3.7937,6.81,4.01508,22.83761,2.0359,45.51198,.18766,68.13009-3.23977,3.28793-.49819,7.39423-3.99115,10.37664,.95386-3.10609,1.4607-6.09109,3.77289-9.33923,4.23493-14.134,2.01084-28.30908,4.29736-42.53761,4.91843-13.78521,.60178-26.37076,4.97281-38.97082,9.52868-2.69413,.97406-4.363,4.78507-6.50411,7.28925,2.71038,1.52708,5.38143,4.29053,8.13759,4.37832,16.55876,.52751,33.13757,.56988,49.70855,.50138,7.65647-.03174,15.30967-.88809,22.96607-.91695,2.10702-.00805,4.22011,1.61791,6.33047,2.49415-1.81517,1.15268-3.59321,3.23946-5.45128,3.31358-18.40779,.73271-36.82743,1.20037-55.24684,1.59497-8.41608,.18029-16.83915,.03068-25.61563,.03068-1.577,6.19672,1.44831,12.31187,9.51636,14.92464,6.44443,2.08679,13.43058,2.46438,19.93719,4.40353,8.01718,2.38919,15.86019,5.4268,23.63465,8.54338,4.58211,1.83693,8.71013,4.88061,13.35351,6.47528,7.94581,2.72882,14.86408,.11346,19.40087-6.91135,2.91332-4.51107,4.87852-9.70548,8.1688-13.88452,4.12802-5.24332,8.60771-10.57306,13.99537-14.35461,5.0167-3.52091,7.12288-7.51905,6.16617-12.9779-1.84569-10.53175,.62826-19.10687,9.28677-25.8693,5.22647-4.08191,5.30855-9.50757,2.29242-15.07813-2.0667-3.81702-4.50232-7.44896-6.36183-11.35923-1.78465-3.75292-2.66566-7.72228,.07516-10.60351,3.43742,6.17112,6.68177,12.42298,10.32297,18.43439,5.75353,9.49853,5.68239,15.00644-2.15037,22.7395-5.86461,5.78989-7.39734,12.11783-6.89359,20.18429,2.35939,37.77935,10.89057,74.54834,17.16364,111.70464,5.00235,29.62951,8.6333,59.57053,.8249,89.43319-5.51437,21.08992-15.133,39.98552-31.66511,54.559-20.94044,18.45938-44.53173,26.66724-73.06752,16.21356,.65863,4.32576,1.25433,8.23809,1.86186,12.22818-8.05719-1.35788-11.15698-4.08593-11.52263-11.80092-.72545-15.30725-1.92283-30.69621-1.0961-45.95212,1.85321-34.20087,3.01726-68.35906-.34196-102.49447-2.29136-23.28364-5.62264-46.4687-7.68084-69.76934-.82551-9.34565-2.32386-15.91161-12.67636-19.83183-9.77161-3.70029-12.09676-13.10032-9.10599-23.53106,.2261-.78875,.94517-1.77056,.69022-2.31097-2.54449-5.39475-.05793-9.48888,3.63596-13.30279-11.56978-11.98106-13.72918-26.18173-10.72528-42.99047-8.39961,1.83997-16.08485,3.52342-23.81899,5.21765,3.20836,11.96777,1.29958,21.01306-18.68134,25.93453,5.87584,12.13431,3.30296,19.80951-8.74543,26.23132-1.21652,.64841-2.92881,1.28254-3.36028,2.34864-5.38037,13.29641-16.38702,21.56411-26.83488,30.30389-18.78384,15.71294-40.16767,21.24576-64.39467,17.05533-10.9611-1.89571-22.17115-2.35077-34.17733-3.55022,1.13262,2.17944,1.81957,3.57286,2.56939,4.9318,4.22763,7.66167,2.39955,13.20391-5.4979,17.2382-1.78055,.90966-3.09402,2.78091-4.90076,3.57969-1.96922,.87077-4.8975,2.08982-6.29631,1.2669-4.46071-2.62447-7.16828-.46128-10.26451,2.20435-61.95769,53.34086-129.77008,98.18177-201.32164,137.38932-26.63111,14.59277-54.11221,27.67699-81.52046,40.79083-15.89626,7.60593-32.81683,12.00445-50.47374,6.7947-6.1844-1.82463-11.72398-5.78768-17.63-8.62419-3.20658-1.54014-7.34154-1.97636-9.6933-4.29508-4.95896-4.88912-9.8295-10.21825-13.30872-16.19807-14.80308-25.44226-22.95525-53.24016-26.20685-82.31618-8.86775-79.29574,1.88272-156.67694,24.18281-232.75076,17.75265-60.56054,43.74699-117.48443,77.01427-171.07575,16.78953-27.04673,37.02806-50.9187,64.36115-68.03182,.67158-.4205,1.26048-.97307,1.87891-1.45683Zm208.06062,297.52102c1.20346-7.44516,6.51489-11.92463,11.84067-16.38603,3.33371-2.79268,6.63219-5.632,10.04888-8.32011,23.9763-18.86271,47.24986-38.47294,66.62597-62.25925,7.7986-9.57364,17.21542-16.58045,29.52074-19.40047,5.34871-1.22581,8.73025-4.92815,11.16359-9.94151,6.5303-13.45391,10.01343-15.48906,24.90552-13.34159,9.84336,1.41947,18.95247,1.17493,26.94596-5.5575,.6165-.51915,1.44664-.80303,2.20519-1.1321,6.66286-2.88966,13.78559-1.81574,17.10905,2.5644,3.78841,4.9927,3.21238,9.01887-2.2881,16.18607-.32017,.41724-.49775,.94383-.07888,.1269,3.65851,3.74829,6.71252,7.10865,10.05124,10.15711,1.00651,.91907,2.81265,1.38932,4.23712,1.35818,18.6446-.406,37.28654-.93274,55.92802-1.47103,.52896-.01534,1.04447-.49242,1.56629-.7542,.34537-3.86213,1.48498-9.17653,3.68759-9.66166,5.69598-1.25467,11.95736-1.03155,17.81127-.1673,5.70077,.84169,9.96104,4.82517,10.4348,10.83757,.50428,6.39949,5.58992,7.79458,9.41379,7.43172,9.90713-.94026,18.73905,.83569,27.0603,7.16242,0-1.72514,.12763-2.56098-.01868-3.34556-4.13667-22.18101-8.37159-44.34394-12.44198-66.53702-4.64855-25.34544-13.07062-49.01221-28.38964-70.14716-14.90083-20.55801-33.70972-36.99151-53.05707-52.97701-9.20462-7.60517-18.49829-15.1025-26.54744-21.66656-23.67633,19.76736-46.62805,38.9624-69.61689,58.11294-19.49471,16.23984-37.57474,33.84082-52.69059,54.32813-.4626,.62699-1.23155,1.02782-2.18613,1.79972,0-1.10119-.12148-1.54599,.02027-1.87847,.72993-1.71185,1.4802-3.41839,2.30867-5.08429,10.25919-20.62871,26.10731-36.66943,42.71785-52.09507,21.55063-20.01342,43.10825-40.01984,64.54986-60.14976,3.45686-3.24523,6.2052-7.23328,9.50793-10.65926,2.47077-2.56295,5.42433-5.25,9.12589-2.27201,3.64203,2.93007,2.88531,6.46966,.34871,9.89511-1.08874,1.47035-2.021,3.05644-3.23941,4.91873,6.22061,3.65814,12.21626,7.18406,18.54977,10.90866,.60647-3.311,1.24848-6.07923,1.60281-8.88392,1.2443-9.84802-.86719-14.24168-9.97281-18.31858-7.93632-3.55326-13.17904-9.35841-18.00775-16.40221-3.47477-5.06865-8.42618-9.74163-13.75469-12.76419-6.55794-3.71988-14.19869-5.52423-21.35999-8.18705-9.58249-3.56336-18.63139-1.74853-28.28744,2.94199,2.27025,5.55249,4.49655,11.06753,6.77819,16.55964,2.72329,6.55532,1.97947,11.8171-1.93323,13.28805-3.64059,1.36858-8.26765-2.33148-10.128-8.85999-1.79907-6.31352-2.96935-12.80634-4.4059-19.17636-.49904-.14672-.88724-.37319-1.25987-.34995-1.23747,.07716-2.46948,.24348-3.70345,.37661-34.41862,3.71502-65.77981-4.20205-93.78262-24.75793-4.89401-3.59253-5.66941-8.30424-2.40897-12.86292,3.15476-4.41097,8.08354-5.24666,13.0789-2.17336,1.94006,1.19361,3.80208,2.51405,5.73933,3.71252,65.62721,40.60104,147.67522,12.07075,170.29743-60.38002,6.27163-20.08571,8.07465-41.67633,10.85321-62.71856,3.99629-30.26311,5.12944-60.69906,2.47532-91.19782-3.89607-44.76877-19.29222-84.8919-48.11417-119.61431-5.10538-6.15054-10.21478-7.60924-18.74345-5.42703,1.2333,.92822,2.41808,1.73479,3.50742,2.65439,4.73312,3.99579,9.83106,7.65549,14.04677,12.14206,4.48432,4.77224,4.7417,12.14571,1.54238,15.99822-3.51896,4.23744-10.48354,4.92758-16.43546,1.12424-3.27965-2.09571-6.05297-4.97979-9.0773-7.48085-6.36145-5.26071-12.73793-10.50323-19.10826-15.75323-.7278,.80193-1.45567,1.60386-2.18347,2.40579,5.73106,5.09789,12.07914,9.66633,17.02751,15.43586,5.43777,6.34025,10.12929,13.492,14.11745,20.84819,2.93048,5.40531,.20469,12.18846-4.41045,14.6438-4.57422,2.43358-11.32189,.94778-14.88238-3.63004-3.29598-4.23782-5.98791-8.95891-9.40468-13.08722-12.54379-15.15623-25.18386-30.23637-38.06445-45.10535-1.56227-1.80344-4.97031-3.3072-7.24937-2.98919-24.15867,3.3713-48.47624,6.12089-72.30913,11.1377-17.49284,3.68218-34.55391,9.87753-51.37271,16.12384-9.48409,3.52224-10.31006,6.62762-7.89343,16.55539,6.58383,27.0473,5.76758,53.73166-6.51011,78.82265-4.95497,10.12613-6.49249,19.71708-5.39009,30.35705,.2778,2.68059,.95056,5.44176,.5821,8.0442-.97523,6.88933-1.66522,13.97155-3.90025,20.48556-2.07718,6.05394-4.42131,5.91808-8.59127,1.09868-5.11418-5.91071-11.65139-9.99687-19.39358-8.34335-6.29904,1.34542-12.72981,4.18534-17.97575,7.93796-13.25626,9.48281-19.04247,22.71094-15.65038,39.01936,3.06232,14.72278,12.50018,23.94913,27.13907,26.28441,6.89587,1.10012,14.28498-1.24442,21.4634-1.38757,2.74929-.05491,6.84105,.92712,7.92121,2.81235,1.00219,1.74922-1.24332,5.31919-1.96497,8.11179-.49684,1.92298-1.77079,4.32364-1.09937,5.76687,8.09098,17.39236,18.26308,33.31537,32.22839,46.78728,6.72823,6.49054,12.37114,14.12807,18.24395,21.45597,.67329,.84009,.06955,3.25655-.63813,4.56559-6.46615,11.9604-12.3596,24.32756-19.92838,35.55898-4.70473,6.98137-12.01476,12.20608-18.35586,18.41548,8.33234,7.48936,16.4486,13.98415,23.63389,21.38329,29.15783,30.02593,58.06769,60.29329,86.97839,90.5583,6.71062,7.02504,7.38763,7.19773,13.97085,.2068,29.21173-31.0208,54.97838-64.69219,77.65647-100.75741,1.96064-3.11803,4.35207-6.06617,7.02213-8.58553,1.0302-.97223,3.81187-1.24047,5.03097-.5253,1.15191,.67575,2.09396,3.26992,1.73234,4.65589-.87486,3.35323-2.13868,6.76364-3.98855,9.6795-23.59198,37.18615-50.31351,71.96275-80.78511,103.78673-9.71968,10.15089-17.76579,10.06203-27.44045-.16055-10.1122-10.68508-19.87114-21.70355-29.90499-32.46388-27.13599-29.10101-54.26812-58.20651-81.5886-87.13376-3.8181-4.04257-8.68595-7.09301-13.06785-10.60275,.2204-.40903,.44077-.81814,.66118-1.22718,5.64337,2.66517,11.28673,5.33043,17.55875,8.29262,3.71925-7.25834,7.44943-14.53771,11.92084-23.26381-13.05878-4.13598-25.15497-8.19685-37.40608-11.71867-4.10452-1.17986-8.59496-1.1769-12.92478-1.38248-13.54476-.64279-23.74781,4.77915-29.71636,17.19089-5.53081,11.50147-14.30407,17.24427-27.25869,16.56837-3.46847-.1809-7.03549,.44199-10.48081,1.09784-12.93438,2.4621-25.28628,6.51006-35.8607,14.6899-9.92179,7.67512-12.6942,23.24589-5.67727,31.06158,31.23387-15.29601,63.81431-26.20353,98.74511-29.6696-1.46592,1.76167-3.20544,2.91594-5.10336,3.67272-19.2155,7.66251-38.51038,15.12817-57.67919,22.90505-33.01708,13.39521-63.74591,30.54038-86.09081,59.13044-12.32798,15.77347-23.77685,32.45014-33.80148,49.7737-60.54814,104.6332-91.68016,217.27545-90.14252,338.49966,.55048,43.40163,8.8135,84.79499,33.37194,121.67562,1.59936,2.40165,2.36113,5.42543,4.17938,7.60259,2.91697,3.49296,5.92345,7.35668,9.76334,9.50726,3.80181,2.12916,8.63383,2.89604,13.09811,3.27895,17.13456,1.46921,32.67425-4.50651,47.686-11.62488,68.93134-32.68549,135.47422-69.56262,197.14272-114.7102,27.55156-20.17054,54.55704-41.08731,82.14129-61.91523-1.88441-2.33163-3.1565-3.92645-4.45016-5.5035-13.53884-16.50367-20.8554-35.1848-19.46328-56.76395,.63851-9.89868,1.74509-19.76728,2.63932-29.64956l-.22542,.23634Zm34.41125,68.14354c2.09555-.28859,4.96348-1.09511,7.803-1.00504,14.49509,.45931,29.02132,.68577,43.46273,1.88447,16.10117,1.33646,31.77019,.68987,45.14823-9.29811,10.39213-7.75858,19.87751-16.73591,29.70356-25.24359,.923-.79923,1.39828-2.1158,2.17201-3.335-7.28877-.97087-14.78474,2.46483-20.75253-4.16203,2.95341-1.50627,5.93188-2.15407,8.94496-2.49962,7.56802-.86773,15.42105-.6601,22.63056-2.72882,4.4784-1.28512,9.04594-5.23876,11.69216-9.23979,4.04541-6.11652-.02976-11.80365-7.28726-11.22982-10.73485,.8489-21.45649,1.8664-32.18147,2.83681-3.46923,.31395-7.23176,.53677-7.4202-4.15018-.17014-4.23023,3.08901-5.19638,6.79694-5.41001,10.95951-.63102,21.92197-1.28991,32.85635-2.24543,5.1217-.44761,10.39395-.98226,15.203-2.63047,3.91885-1.34299,6.37413-3.83479,3.74848-9.46625-2.75502-5.90897-7.29576-7.60897-12.45663-8.75025-17.30759-3.82734-34.83604-4.93962-52.50374-3.26232-5.52531,.52447-11.03201,1.24457-16.5473,1.87513-.06264-.39012-.12527-.78017-.18799-1.1703,4.28199-1.30137,8.5639-2.60275,13.48873-4.09945-4.31904-5.43424-.70434-7.43734,3.66261-8.87404,5.09778-1.67722,10.16505-3.81671,15.41711-4.59088,21.4839-3.16656,43.098-5.48907,64.52647-8.97026,8.62176-1.40071,17.09653-4.47272,25.2345-7.77848,4.41561-1.79372,7.20473-6.88014,4.79576-11.3606-1.43988-2.67809-6.1188-4.69721-9.52046-4.99923-6.127-.54399-12.40857,.20915-18.58971,.79817-28.43344,2.70953-56.85338,5.56084-85.28097,8.33226-5.13939,.501-10.29207,.86538-15.43859,1.29279-.20439-.84153-.40885-1.68307-.61323-2.5246,22.68933-2.63761,38.93734-18.37166,58.5006-26.8533-.12816-10.35123,2.20974-13.22206,11.95607-15.21505,5.06134-1.03496,10.46502-7.92026,10.39851-14.32089-3.07754,.65919-6.57183,.44458-8.74111,2.03651-10.1677,7.46202-21.21323,7.97297-33.13848,6.1851-9.69258-1.45311-11.8989-.03805-15.95532,8.97117-3.51547,7.80802-9.02286,12.7465-17.22468,14.70425-10.62575,2.5363-18.3797,9.12701-25.11021,17.30009-2.89639,3.51704-5.85367,7.00043-8.99742,10.29465-24.16694,25.32402-51.56616,46.61922-81.20474,64.98207,3.01172,15.20207,5.80281,30.42623,9.08792,45.54302,3.08946,14.21654,9.15367,26.95552,21.16798,37.89797,.29542-3.73158,.50633-6.39478,.75376-9.52063Zm226.48177-10.41388c2.45832,14.95533,5.05959,29.61538,7.24967,44.33649,5.18737,34.86796,8.52579,69.89267,7.80756,105.19975-.37088,18.22896-1.01919,36.45215-1.42128,54.68081-.04274,1.94021,.04115,4.77854,1.23071,5.70612,7.89874,6.15996,16.1815,11.27022,27.0559,10.21233,13.25375-1.28968,24.81639-6.30911,34.9267-14.65109,22.34236-18.43492,31.97146-43.21678,34.17688-71.25283,1.96519-24.98083-1.7129-49.56143-6.40981-74.0462-3.22871-16.83159-5.97568-33.76161-8.62274-50.69679-1.5174-9.70836-2.40479-19.5153-3.66519-30.02259-1.5871,1.09617-2.67234,1.48106-3.17366,2.24794-5.63092,8.61538-13.09371,16.69186-16.03952,26.16525-1.86202,5.98772,2.90816,14.12769,5.0006,21.21462,.86909,2.94358,2.49795,5.66526,3.80603,8.47625,5.15101,11.06837,10.25949,22.15693,15.4969,33.18429,1.88897,3.97748,.14889,6.6299-3.22354,7.90697-2.96768,1.12382-6.14317,.81427-7.54889-3.12464-7.18985-20.14487-19.58787-38.51297-20.17961-61.64517-11.93003,7.70542-21.81029,2.64513-31.10571-3.65412-10.68231-7.23897-22.30303-10.43712-35.36098-10.23739Zm-26.36909-88.16136c-4.76577,14.56019,3.30175,29.6226,10.91016,38.00255,.55538,.61165,1.94105,.96601,2.76337,.75336,3.92371-1.01461,7.78607-2.26632,12.88621-3.79917-7.09259-1.92685-13.30781-3.37555-14.56859-10.42223-1.66682-9.31626,4.06819-14.96801,12.52876-20.42571-9.10174-1.52518-16.69041-2.79679-24.51991-4.10879Zm-106.03775-734.23321c-1.12996,.82422-2.53857,1.32959-2.7778,2.16858-.25518,.89515,.30665,2.768,1.00773,3.07277,5.26026,2.28682,10.61094,4.38295,16.02335,6.28238,.78026,.27382,2.49415-.56715,2.94491-1.36312,.40042-.707-.0372-2.75042-.64755-3.03358-5.37809-2.49476-10.87751-4.72785-16.55064-7.12703Zm120.05491,668.67253c-1.77736,.10192-2.79549-.14277-3.39232,.25115-1.8318,1.20887-3.50211,2.66244-5.23513,4.02092,1.82808,1.08752,3.54834,2.48056,5.51521,3.17491,1.8936,.66853,4.07844,.96942,6.06717,.76589,1.5852-.16229,3.06798-1.32682,4.59624-2.04646-.81853-1.66332-1.23292-3.89334-2.56157-4.84142-1.53919-1.09815-3.8821-1.06929-4.98959-1.32499Zm-352.80907-633.76139c-5.24796,.85972-9.54665,1.38541-13.74106,2.36007-1.25744,.29219-2.22394,1.8372-3.32376,2.80825,1.36814,.86929,2.81018,2.57005,4.09089,2.45614,4.28419-.38116,8.55422-1.23959,12.73201-2.30023,1.20805-.30674,2.08773-1.90779,3.11794-2.91545l-2.87601-2.40879Zm15.77584-34.25213c-1.36293-1.46044-2.00452-2.67998-2.99061-3.11127-3.95309-1.72856-7.97675-3.32015-12.06252-4.70119-.87137-.29447-2.11226,.5048-3.18289,.80014,.35433,1.2694,.34526,3.31598,1.12302,3.67986,4.45657,2.08496,9.05979,3.8895,13.72292,5.46424,.71083,.24006,1.99291-1.21248,3.39008-2.13178Zm15.24685,55.40391c1.12507-.48779,1.91095-.56996,2.18287-.98727,2.23556-3.43042,4.46007-6.87569,6.46106-10.4438,.3308-.58982-.17326-2.12225-.78246-2.63218-.61057-.51103-2.43193-.7037-2.69873-.32124-2.54544,3.64872-4.98694,7.3868-7.12759,11.28112-.28562,.51957,1.26962,2.05162,1.96485,3.10337Zm246.46357-79.76177c-1.30831,1.7712-2.05494,2.7819-2.80149,3.79264,3.02174,2.23154,5.98829,4.55022,9.15481,6.5527,.29959,.18944,1.85351-1.60564,2.82518-2.47938-2.86587-2.45603-5.73167-4.91209-9.1785-7.86596Zm103.14212,697.98121c-2.62307-1.95867-4.22186-4.06193-5.5805-3.91673-1.41885,.15158-2.60659,2.46757-3.89539,3.83737,1.22418,1.12116,2.41944,3.10056,3.67992,3.14309,1.52287,.05134,3.101-1.53855,5.79597-3.06373Z"/><path d="M682.27679,1271.01433c-.89422,9.88227-2.0008,19.75088-2.63932,29.64956-1.39213,21.57915,5.92443,40.26028,19.46328,56.76395,1.29365,1.57705,2.56575,3.17187,4.45016,5.5035-27.58424,20.82791-54.58973,41.74468-82.14129,61.91523-61.6685,45.14758-128.21137,82.02471-197.14272,114.7102-15.01175,7.11837-30.55143,13.09409-47.686,11.62488-4.46428-.38291-9.2963-1.14979-13.09811-3.27895-3.83989-2.15058-6.84637-6.0143-9.76334-9.50726-1.81825-2.17716-2.58002-5.20094-4.17938-7.60259-24.55844-36.88063-32.82146-78.27399-33.37194-121.67562-1.53763-121.22421,29.59439-233.86645,90.14252-338.49966,10.02463-17.32356,21.47349-34.00023,33.80148-49.7737,22.3449-28.59006,53.07373-45.73523,86.09081-59.13044,19.16881-7.77688,38.46369-15.24254,57.67919-22.90505,1.89793-.75678,3.63744-1.91105,5.10336-3.67272-34.9308,3.46608-67.51124,14.37359-98.74511,29.6696-7.01693-7.81569-4.24452-23.38646,5.67727-31.06158,10.57442-8.17984,22.92632-12.2278,35.8607-14.6899,3.44532-.65585,7.01234-1.27874,10.48081-1.09784,12.95461,.6759,21.72787-5.0669,27.25869-16.56837,5.96855-12.41174,16.17159-17.83367,29.71636-17.19089,4.32982,.20558,8.82026,.20262,12.92478,1.38248,12.25111,3.52182,24.3473,7.58269,37.40608,11.71867-4.47142,8.7261-8.2016,16.00548-11.92084,23.26381-6.27201-2.96219-11.91538-5.62744-17.55875-8.29262-.2204,.40903-.44077,.81814-.66118,1.22718,4.3819,3.50975,9.24975,6.56018,13.06785,10.60275,27.32049,28.92725,54.45261,58.03275,81.5886,87.13376,10.03385,10.76034,19.79278,21.77881,29.90499,32.46388,9.67466,10.22258,17.72077,10.31143,27.44045,.16055,30.4716-31.82398,57.19313-66.60058,80.78511-103.78673,1.84987-2.91587,3.11368-6.32628,3.98855-9.6795,.36162-1.38598-.58043-3.98014-1.73234-4.65589-1.2191-.71516-4.00077-.44693-5.03097,.5253-2.67007,2.51936-5.06149,5.4675-7.02213,8.58553-22.67809,36.06522-48.44474,69.73661-77.65647,100.75741-6.58322,6.99094-7.26023,6.81824-13.97085-.2068-28.9107-30.265-57.82056-60.53236-86.97839-90.5583-7.18529-7.39914-15.30155-13.89393-23.63389-21.38329,6.3411-6.2094,13.65113-11.43411,18.35586-18.41548,7.56878-11.23142,13.46224-23.59857,19.92838-35.55898,.70768-1.30904,1.31142-3.7255,.63813-4.56559-5.87281-7.3279-11.51572-14.96543-18.24395-21.45597-13.9653-13.47191-24.13741-29.39492-32.22839-46.78728-.67143-1.44324,.60253-3.8439,1.09937-5.76687,.72165-2.79261,2.96715-6.36258,1.96497-8.11179-1.08016-1.88523-5.17192-2.86726-7.92121-2.81235-7.17842,.14315-14.56753,2.48769-21.4634,1.38757-14.63889-2.33527-24.07675-11.56162-27.13907-26.28441-3.39209-16.30842,2.39412-29.53655,15.65038-39.01936,5.24595-3.75262,11.67671-6.59254,17.97575-7.93796,7.74219-1.65353,14.2794,2.43263,19.39358,8.34335,4.16996,4.8194,6.51409,4.95526,8.59127-1.09868,2.23503-6.51401,2.92502-13.59623,3.90025-20.48556,.36846-2.60244-.3043-5.36361-.5821-8.0442-1.1024-10.63997,.43512-20.23092,5.39009-30.35705,12.27768-25.09099,13.09393-51.77535,6.51011-78.82265-2.41663-9.92776-1.59067-13.03315,7.89343-16.55539,16.8188-6.24631,33.87987-12.44166,51.37271-16.12384,23.83288-5.01681,48.15046-7.7664,72.30913-11.1377,2.27906-.31802,5.6871,1.18575,7.24937,2.98919,12.88059,14.86898,25.52065,29.94912,38.06445,45.10535,3.41677,4.12831,6.1087,8.8494,9.40468,13.08722,3.56049,4.57782,10.30816,6.06363,14.88238,3.63004,4.61514-2.45534,7.34093-9.2385,4.41045-14.6438-3.98817-7.35619-8.67969-14.50794-14.11745-20.84819-4.94837-5.76953-11.29645-10.33798-17.02751-15.43586,.7278-.80193,1.45567-1.60386,2.18347-2.40579,6.37033,5.25,12.74681,10.49252,19.10826,15.75323,3.02432,2.50106,5.79764,5.38514,9.0773,7.48085,5.95192,3.80335,12.9165,3.11321,16.43546-1.12424,3.19933-3.85252,2.94195-11.22599-1.54238-15.99822-4.21571-4.48657-9.31364-8.14627-14.04677-12.14206-1.08935-.9196-2.27413-1.72617-3.50742-2.65439,8.52867-2.18221,13.63807-.72352,18.74345,5.42703,28.82194,34.72242,44.21809,74.84554,48.11417,119.61431,2.65412,30.49876,1.52097,60.93471-2.47532,91.19782-2.77856,21.04223-4.58158,42.63285-10.85321,62.71856-22.62221,72.45077-104.67023,100.98106-170.29743,60.38002-1.93725-1.19847-3.79927-2.51891-5.73933-3.71252-4.99536-3.0733-9.92414-2.23761-13.0789,2.17336-3.26044,4.55868-2.48504,9.27039,2.40897,12.86292,28.00281,20.55588,59.364,28.47296,93.78262,24.75793,1.23398-.13313,2.46598-.29945,3.70345-.37661,.37263-.02324,.76083,.20323,1.25987,.34995,1.43654,6.37002,2.60682,12.86284,4.4059,19.17636,1.86034,6.52852,6.4874,10.22858,10.128,8.85999,3.9127-1.47096,4.65652-6.73273,1.93323-13.28805-2.28164-5.49211-4.50794-11.00715-6.77819-16.55964,9.65606-4.69052,18.70496-6.50535,28.28744-2.94199,7.1613,2.66282,14.80205,4.46717,21.35999,8.18705,5.32851,3.02257,10.27992,7.69555,13.75469,12.76419,4.82871,7.0438,10.07143,12.84895,18.00775,16.40221,9.10561,4.0769,11.21711,8.47055,9.97281,18.31858-.35433,2.80468-.99634,5.57291-1.60281,8.88392-6.33351-3.72459-12.32916-7.25051-18.54977-10.90866,1.21841-1.8623,2.15067-3.44838,3.23941-4.91873,2.53659-3.42545,3.29332-6.96504-.34871-9.89511-3.70156-2.97799-6.65512-.29094-9.12589,2.27201-3.30273,3.42598-6.05107,7.41402-9.50793,10.65926-21.44161,20.12991-42.99922,40.13634-64.54986,60.14976-16.61054,15.42565-32.45866,31.46636-42.71785,52.09507-.82847,1.66591-1.57875,3.37244-2.30867,5.08429-.14175,.33248-.02027,.77729-.02027,1.87847,.95458-.77189,1.72353-1.17273,2.18613-1.79972,15.11584-20.48731,33.19588-38.08829,52.69059-54.32813,22.98884-19.15054,45.94056-38.34559,69.61689-58.11294,8.04914,6.56406,17.34282,14.06139,26.54744,21.66656,19.34734,15.9855,38.15624,32.419,53.05707,52.97701,15.31901,21.13495,23.74109,44.80173,28.38964,70.14716,4.07039,22.19308,8.30531,44.35601,12.44198,66.53702,.1463,.78458,.01868,1.62041,.01868,3.34556-8.32125-6.32673-17.15316-8.10268-27.0603-7.16242-3.82387,.36286-8.9095-1.03223-9.41379-7.43172-.47376-6.0124-4.73404-9.99589-10.4348-10.83757-5.8539-.86424-12.11528-1.08736-17.81127,.1673-2.20261,.48513-3.34221,5.79953-3.68759,9.66166-.52182,.26178-1.03734,.73886-1.56629,.7542-18.64149,.53829-37.28343,1.06504-55.92802,1.47103-1.42447,.03114-3.23061-.43911-4.23712-1.35818-3.33872-3.04846-6.39273-6.40883-10.05124-10.15711-.41887,.81693-.24128,.29033,.07888-.1269,5.50048-7.1672,6.07651-11.19337,2.2881-16.18607-3.32346-4.38014-10.44619-5.45406-17.10905-2.5644-.75855,.32906-1.58869,.61294-2.20519,1.1321-7.99349,6.73243-17.1026,6.97696-26.94596,5.5575-14.8921-2.14747-18.37522-.11232-24.90552,13.34159-2.43334,5.01336-5.81488,8.7157-11.16359,9.94151-12.30532,2.82002-21.72214,9.82683-29.52074,19.40047-19.37612,23.78631-42.64967,43.39654-66.62597,62.25925-3.41669,2.68811-6.71517,5.52742-10.04888,8.32011-5.32578,4.4614-10.63721,8.94087-11.84128,16.38603-.35403-7.95094-2.70689-9.76031-10.05443-6.87368-42.09354,16.53754-84.1452,33.18201-126.18647,49.8523-17.79172,7.05488-35.52322,14.26165-54.71189,21.97406,6.10665-27.40739,11.93717-53.57552,17.76769-79.74351-.76971-.24545-1.53946-.49098-2.30916-.73643-1.21728,2.67345-2.66942,5.26732-3.6062,8.03577-2.45012,7.24072-4.59832,14.58328-7.00554,21.83911-5.20203,15.68059-11.47544,31.09507-15.33249,47.09554-1.95559,8.11233-6.43764,10.46628-12.80307,13.14361-26.85117,11.29437-53.62239,22.78833-80.23744,34.62646-4.9645,2.2083-9.44529,5.942-13.44614,9.71732-2.42521,2.28849-3.49937,6.00929-5.18054,9.08669,.49836,.34873,.99668,.69762,1.49504,1.04635,4.80495-9.9488,13.96056-13.63694,23.34124-17.12489,41.5768-15.46035,83.22778-30.72872,124.65578-46.57942,38.59196-14.76577,76.97677-30.07727,115.37015-45.35612,16.26532-6.473,32.31942-13.47685,48.46949-20.2395Zm-76.86607-300.25477c-.68156,.64059-1.36309,1.2811-2.04465,1.92168,5.04745,6.74564,9.7879,13.74934,15.19898,20.1893,17.44334,20.75979,34.42272,41.97882,52.94812,61.73828,15.52674,16.56116,34.31567,29.30257,55.77997,37.56215,3.43598,1.32218,7.05501,2.68576,8.97647-1.8727,1.96231-4.65536-1.10658-6.83457-4.96758-8.28176-16.91385-6.33949-32.19483-15.65614-44.97558-28.20951-20.38787-20.02534-39.8784-40.96421-59.776-61.49009-7.00497-7.22621-14.09084-14.37382-21.13974-21.55735Zm201.77505-121.48637c12.25172-.6273,23.05467-4.70837,31.74218-13.59115,4.3343-4.43163,4.28541-8.83554,.14782-12.95238-3.88575-3.8663-7.44852-3.54825-12.16873,1.0863-13.31107,13.06933-29.5215,13.23968-42.94357,.27902-2.96336-2.86157-5.31788-6.34823-8.22187-9.28042-.98115-.99061-3.05811-1.89153-4.15254-1.49685-1.1223,.40463-2.18332,2.3933-2.31915,3.78193-.19277,1.97112,.25328,4.09649,.82832,6.03663,4.37894,14.77336,20.58717,26.14983,37.08754,26.13692Zm-343.3087,248.63701l-2.25237,.69352c.63851,2.86331,1.054,5.79862,1.94997,8.57892,9.14855,28.3901,16.418,57.19562,19.7508,86.91109,1.05841,9.43664,2.12794,18.89081,3.81639,28.22401,.40585,2.24353,3.30049,4.03665,5.05056,6.03693,1.55069-2.37552,4.04302-4.60357,4.44321-7.15938,.69352-4.42912,.64827-9.14934-.05516-13.59426-5.67264-35.84544-14.15929-70.91344-29.72228-103.93908-.91992-1.95206-1.98406-3.83608-2.98112-5.75176Zm387.83671-346.12093c.1047-11.61979-7.15826-20.95064-18.46625-23.15309-2.03618-.39658-4.38221,.79847-6.58519,1.25869,.98905,2.00355,1.66978,4.25309,3.03062,5.96008,2.9358,3.68259,6.81843,6.72665,9.20864,10.69753,2.85107,4.73647,2.5561,10.09871-1.3553,14.45083-3.75182,4.17456-8.80655,4.9886-13.66548,2.74188-5.2059-2.40742-10.07523-5.61468-14.88443-8.78694-4.01337-2.64725-7.55542-2.54025-10.22533,1.41013-2.49377,3.68981-2.51731,7.73154,1.84668,10.13547,6.09511,3.35771,12.18172,7.17427,18.76683,9.11243,17.32202,5.09811,32.17038-6.19482,32.32921-23.82701Zm-359.03227,277.66777c-.56138,.22525-1.12271,.45042-1.68409,.67567,.52042,3.51628,.67556,7.13402,1.61948,10.53266,6.95448,25.03976,13.99958,50.05484,21.17208,75.03294,1.99025,6.93102,4.22634,13.82566,6.95729,20.48784,.77825,1.89837,3.69446,2.91981,5.63031,4.34338,.8197-2.26275,1.69252-4.50871,2.41895-6.801,.16661-.52591-.15659-1.21434-.27799-1.82326-6.61143-33.16416-19.18103-64.37482-31.46642-95.66978-.96309-2.45337-2.89039-4.52785-4.3696-6.77845Zm246.16022-346.36813c1.61845,5.53988,2.38535,10.77955,4.62721,15.28485,4.43156,8.90602,14.26459,9.16369,18.90198,.45073,5.48871-10.31242,5.57792-21.12675-.30491-31.39619-4.68879-8.185-13.61962-8.19647-18.06386,.14065-2.54631,4.77664-3.51668,10.39383-5.16042,15.51997Zm114.76717,.51125c1.83681,5.41875,2.92441,11.2122,5.65582,16.08332,4.16818,7.43362,12.1228,7.28818,17.11179,.38579,6.13755-8.49144,6.33146-24.39302,.40239-32.99488-5.4241-7.86915-13.64187-7.75326-18.08968,.79118-2.40327,4.6167-3.29734,10.0195-5.08032,15.73459Zm-149.78945-35.38567c.64216,.5897,1.28424,1.17941,1.9264,1.76904,1.86148-1.08516,3.65433-2.31614,5.59607-3.23088,9.46526-4.45874,18.68051-9.72689,28.56039-12.93051,6.87142-2.22812,14.70024-1.37781,22.05324-2.29085,4.40415-.54687,8.89136-1.95631,8.76973-7.63684-.11639-5.43576-3.71947-7.95231-8.79623-8.63083-1.01896-.13617-2.06503-.17896-3.09205-.12914-19.86969,.96308-36.10191,9.39388-49.08226,24.24022-2.31717,2.65029-3.97367,5.87851-5.93529,8.83979Zm148.62585-36.83111c-5.46388,.02487-9.21115,1.36676-10.00211,6.45591-.81002,5.21161,1.89079,8.25643,6.81835,9.38716,2.6091,.5987,5.41089,.52584,7.9178,1.37242,11.69254,3.9487,23.2876,8.18614,34.98531,12.11867,1.73621,.58363,3.83366,.09235,5.76401,.09842-.34507-1.89123-.3185-3.96412-1.13103-5.62676-.97508-1.99543-2.50767-3.79328-4.07123-5.41385-11.24528-11.65526-26.12773-15.20985-40.2811-18.39198Zm-253.80663,126.61098c10.30592,4.72265,18.8713,11.04459,24.66842,21.01382,.88633,1.52427,5.37228,2.44858,7.21987,1.57956,3.00056-1.41134,3.81612-4.75219,1.25903-7.83946-8.59264-10.37424-18.92821-16.93382-33.14732-14.75392Z" style="fill:#fff;"/><path d="M716.46263,1339.3942c-.24743,3.12585-.45835,5.78905-.75376,9.52063-12.01431-10.94245-18.07852-23.68143-21.16798-37.89797-3.28512-15.11678-6.07621-30.34095-9.08792-45.54302,29.63857-18.36285,57.03779-39.65805,81.20474-64.98207,3.14375-3.29422,6.10103-6.77761,8.99742-10.29465,6.73051-8.17308,14.48447-14.76379,25.11021-17.30009,8.20183-1.95776,13.70921-6.89624,17.22468-14.70425,4.05642-9.00922,6.26275-10.42429,15.95532-8.97117,11.92525,1.78787,22.97077,1.27692,33.13848-6.1851,2.16928-1.59194,5.66356-1.37732,8.74111-2.03651,.06651,6.40063-5.33717,13.28593-10.39851,14.32089-9.74633,1.993-12.08423,4.86383-11.95607,15.21505-19.56327,8.48164-35.81128,24.21569-58.5006,26.8533,.20439,.84153,.40885,1.68307,.61323,2.5246,5.14653-.42741,10.2992-.79179,15.43859-1.29279,28.4276-2.77142,56.84753-5.62273,85.28097-8.33226,6.18113-.58902,12.46271-1.34216,18.58971-.79817,3.40166,.30203,8.08058,2.32115,9.52046,4.99923,2.40897,4.48046-.38015,9.56688-4.79576,11.3606-8.13797,3.30576-16.61274,6.37777-25.2345,7.77848-21.42847,3.48119-43.04258,5.80371-64.52647,8.97026-5.25206,.77417-10.31932,2.91366-15.41711,4.59088-4.36695,1.43671-7.98165,3.4398-3.66261,8.87404-4.92483,1.4967-9.20674,2.79808-13.48873,4.09945,.06271,.39012,.12535,.78017,.18799,1.1703,5.51528-.63056,11.02199-1.35066,16.5473-1.87513,17.66769-1.6773,35.19615-.56502,52.50374,3.26232,5.16088,1.14128,9.70161,2.84129,12.45663,8.75025,2.62565,5.63147,.17037,8.12326-3.74848,9.46625-4.80905,1.64821-10.0813,2.18286-15.203,2.63047-10.93438,.95553-21.89684,1.61442-32.85635,2.24543-3.70793,.21363-6.96709,1.17979-6.79694,5.41001,.18844,4.68695,3.95096,4.46413,7.4202,4.15018,10.72498-.97041,21.44662-1.98791,32.18147-2.83681,7.25749-.57383,11.33267,5.1133,7.28726,11.22982-2.64623,4.00103-7.21376,7.95467-11.69216,9.23979-7.20951,2.06871-15.06254,1.86108-22.63056,2.72882-3.01309,.34554-5.99155,.99335-8.94496,2.49962,5.96779,6.62686,13.46375,3.19116,20.75253,4.16203-.77373,1.2192-1.24901,2.53577-2.17201,3.335-9.82605,8.50769-19.31143,17.48502-29.70356,25.24359-13.37804,9.98799-29.04706,10.63457-45.14823,9.29811-14.44142-1.1987-28.96764-1.42516-43.46273-1.88447-2.83953-.09007-5.70745,.71645-7.803,1.00504Z" style="fill:#fff;"/><path d="M942.9444,1328.98032c13.05795-.19973,24.67867,2.99842,35.36098,10.23739,9.29542,6.29924,19.17568,11.35953,31.10571,3.65412,.59174,23.1322,12.98977,41.50029,20.17961,61.64517,1.40572,3.93891,4.5812,4.24845,7.54889,3.12464,3.37243-1.27707,5.11251-3.92949,3.22354-7.90697-5.23741-11.02736-10.34589-22.11592-15.4969-33.18429-1.30808-2.81099-2.93693-5.53266-3.80603-8.47625-2.09244-7.08693-6.86262-15.2269-5.0006-21.21462,2.94582-9.47339,10.40861-17.54987,16.03952-26.16525,.50132-.76688,1.58657-1.15176,3.17366-2.24794,1.2604,10.50729,2.14779,20.31423,3.66519,30.02259,2.64706,16.93518,5.39404,33.8652,8.62274,50.69679,4.69691,24.48476,8.37501,49.06537,6.40981,74.0462-2.20542,28.03605-11.83452,52.81791-34.17688,71.25283-10.11031,8.34198-21.67294,13.36141-34.9267,14.65109-10.8744,1.0579-19.15716-4.05237-27.0559-10.21233-1.18956-.92758-1.27346-3.76591-1.23071-5.70612,.40209-18.22866,1.0504-36.45185,1.42128-54.68081,.71823-35.30707-2.62018-70.33178-7.80756-105.19975-2.19008-14.72111-4.79136-29.38117-7.24967-44.33649Z" style="fill:#fff;"/><path d="M916.5753,1240.81896c7.8295,1.31201,15.41817,2.58361,24.51991,4.10879-8.46057,5.45771-14.19558,11.10945-12.52876,20.42571,1.26078,7.04668,7.476,8.49539,14.56859,10.42223-5.10014,1.53285-8.9625,2.78456-12.88621,3.79917-.82232,.21264-2.208-.14171-2.76337-.75336-7.60841-8.37995-15.67593-23.44236-10.91016-38.00255Z" style="fill:#fff;"/><path d="M810.53755,506.58576c5.67313,2.39918,11.17255,4.63227,16.55064,7.12703,.61035,.28316,1.04797,2.32658,.64755,3.03358-.45076,.79597-2.16464,1.63693-2.94491,1.36312-5.41241-1.89943-10.76309-3.99556-16.02335-6.28238-.70107-.30476-1.26291-2.17761-1.00773-3.07277,.23923-.83899,1.64784-1.34436,2.7778-2.16858Z" style="fill:#fff;"/><path d="M930.59246,1175.25828c1.10749,.2557,3.4504,.22684,4.98959,1.32499,1.32865,.94808,1.74304,3.1781,2.56157,4.84142-1.52826,.71964-3.01104,1.88417-4.59624,2.04646-1.98873,.20353-4.17357-.09736-6.06717-.76589-1.96686-.69435-3.68713-2.08739-5.51521-3.17491,1.73302-1.35848,3.40333-2.81205,5.23513-4.02092,.59683-.39392,1.61496-.14923,3.39232-.25115Z" style="fill:#fff;"/><path d="M577.78339,541.49689c.6559,.54934,1.76597,1.47908,2.87604,2.40883-1.03024,1.00762-1.90992,2.60867-3.11797,2.91541-4.17778,1.06063-8.44782,1.91906-12.73201,2.30023-1.28071,.11392-2.72276-1.58685-4.09089-2.45614,1.09982-.97106,2.06632-2.51606,3.32376-2.80825,4.19441-.97466,8.4931-1.50035,13.74106-2.36007Z" style="fill:#fff;"/><path d="M593.55923,507.24476c-1.39718,.9193-2.67925,2.37184-3.39008,2.13178-4.66312-1.57473-9.26634-3.37927-13.72292-5.46424-.77776-.36389-.76868-2.41046-1.12306-3.67986,1.07067-.29535,2.31156-1.09462,3.18293-.80014,4.08577,1.38104,8.10943,2.97263,12.06252,4.70119,.98609,.43129,1.62768,1.65083,2.99061,3.11127Z" style="fill:#fff;"/><path d="M608.80608,562.64867c-.69523-1.05175-2.25048-2.5838-1.96485-3.10337,2.14065-3.89433,4.58215-7.6324,7.12759-11.28112,.26679-.38245,2.08815-.18978,2.69873,.32124,.60921,.50993,1.11326,2.04236,.78246,2.63218-2.00099,3.56811-4.2255,7.01338-6.46106,10.4438-.27192,.41731-1.0578,.49948-2.18287,.98727Z" style="fill:#fff;"/><path d="M855.26964,482.8869c3.44683,2.95388,6.31263,5.40994,9.1785,7.86593-.97166,.87377-2.52558,2.66886-2.82518,2.47942-3.16653-2.00249-6.13307-4.32117-9.15481-6.5527,.74655-1.01074,1.49318-2.02144,2.80149-3.79264Z" style="fill:#fff;"/><path d="M958.41177,1180.8681c-2.69497,1.52518-4.27311,3.11507-5.79597,3.06373-1.26048-.04253-2.45573-2.02193-3.67992-3.14309,1.2888-1.3698,2.47654-3.68578,3.89539-3.83737,1.35864-.1452,2.95743,1.95806,5.5805,3.91673Z" style="fill:#fff;"/><path d="M682.27679,1271.01433c-16.15007,6.76265-32.20417,13.7665-48.46949,20.2395-38.39338,15.27885-76.77819,30.59035-115.37015,45.35612-41.42799,15.8507-83.07897,31.11907-124.65578,46.57942-9.38068,3.48795-18.53629,7.17609-23.34124,17.12489-.49836-.34873-.99668-.69762-1.49504-1.04635,1.68117-3.0774,2.75533-6.79819,5.18054-9.08669,4.00085-3.77532,8.48164-7.50903,13.44614-9.71732,26.61505-11.83813,53.38627-23.33209,80.23744-34.62646,6.36543-2.67733,10.84748-5.03128,12.80307-13.14361,3.85705-16.00046,10.13046-31.41495,15.33249-47.09554,2.40722-7.25583,4.55543-14.59839,7.00554-21.83911,.93678-2.76846,2.38892-5.36232,3.6062-8.03577,.76971,.24545,1.53946,.49098,2.30916,.73643-5.83052,26.16798-11.66104,52.33612-17.76769,79.74351,19.18866-7.71241,36.92017-14.91918,54.71189-21.97406,42.04126-16.67029,84.09293-33.31476,126.18647-49.8523,7.34754-2.88663,9.7004-1.07726,10.05443,6.87368l.22602-.23634Z"/><path d="M605.41072,970.75955c7.04889,7.18353,14.13476,14.33114,21.13974,21.55735,19.8976,20.52588,39.38813,41.46475,59.776,61.49009,12.78075,12.55337,28.06173,21.87002,44.97558,28.20951,3.861,1.44719,6.92988,3.6264,4.96758,8.28176-1.92146,4.55846-5.54049,3.19488-8.97647,1.8727-21.46431-8.25958-40.25324-21.00099-55.77997-37.56215-18.5254-19.75946-35.50477-40.97848-52.94812-61.73828-5.41108-6.43997-10.15153-13.44366-15.19898-20.1893,.68156-.64059,1.36309-1.2811,2.04465-1.92168Z"/><path d="M807.18615,849.27417c-16.50076,.01192-32.70898-11.36455-37.08792-26.13791-.57504-1.94014-1.02109-4.0655-.82832-6.03663,.13583-1.38863,1.19685-3.3773,2.31915-3.78193,1.09443-.39468,3.17139,.50624,4.15254,1.49685,2.90398,2.93219,5.25851,6.41885,8.22187,9.28042,13.42207,12.96066,29.6325,12.79032,42.94357-.27902,4.72022-4.63455,8.28299-4.9526,12.16873-1.0863,4.13758,4.11684,4.18648,8.52075-.14782,12.95238-8.68751,8.88278-19.49046,12.96385-31.7418,13.59213Z"/><path d="M463.87707,1097.9102c.99706,1.91568,2.0612,3.7997,2.98112,5.75176,15.56299,33.02564,24.04964,68.09364,29.72228,103.93908,.70343,4.44492,.74868,9.16514,.05516,13.59426-.40019,2.55582-2.89252,4.78386-4.44321,7.15938-1.75007-2.00029-4.64471-3.7934-5.05056-6.03693-1.68845-9.3332-2.75798-18.78738-3.81639-28.22401-3.3328-29.71547-10.60225-58.52099-19.7508-86.91109-.89597-2.78031-1.31146-5.71561-1.94997-8.57892l2.25237-.69352Z"/><path d="M851.71378,751.78926c-.15883,17.6322-15.0072,28.92513-32.32921,23.82701-6.58512-1.93816-12.67172-5.75472-18.76683-9.11243-4.36399-2.40393-4.34045-6.44566-1.84668-10.13547,2.66991-3.95037,6.21196-4.05738,10.22533-1.41013,4.8092,3.17225,9.67853,6.37951,14.88443,8.78694,4.85893,2.24672,9.91366,1.43268,13.66548-2.74188,3.91141-4.35212,4.20637-9.71436,1.3553-14.45083-2.39021-3.97088-6.27285-7.01494-9.20864-10.69753-1.36085-1.70699-2.04157-3.95652-3.03062-5.96008,2.20299-.46022,4.54901-1.65527,6.58519-1.25869,11.30799,2.20245,18.57095,11.53329,18.46625,23.15309Z"/><path d="M492.68152,1029.45704c1.47921,2.2506,3.40652,4.32508,4.3696,6.77845,12.28539,31.29496,24.855,62.50561,31.46642,95.66978,.1214,.60892,.44461,1.29735,.27799,1.82326-.72643,2.29229-1.59925,4.53825-2.41895,6.801-1.93585-1.42357-4.85206-2.44501-5.63031-4.34338-2.73096-6.66218-4.96704-13.55682-6.95729-20.48784-7.1725-24.9781-14.2176-49.99317-21.17208-75.03294-.94391-3.39864-1.09906-7.01638-1.61948-10.53266,.56138-.22525,1.12271-.45042,1.68409-.67567Z"/><path d="M738.84173,683.08891c1.64374-5.12614,2.61411-10.74333,5.16042-15.51997,4.44424-8.33712,13.37508-8.32565,18.06386-.14065,5.88283,10.26944,5.79362,21.08377,.30491,31.39619-4.63739,8.71297-14.47042,8.45529-18.90198-.45073-2.24186-4.50529-3.00876-9.74497-4.62721-15.28485Z"/><path d="M853.6089,683.60016c1.78298-5.71508,2.67705-11.11788,5.08032-15.73459,4.44781-8.54445,12.66557-8.66034,18.08968-.79118,5.92907,8.60186,5.73516,24.50345-.40239,32.99488-4.98899,6.90239-12.94361,7.04782-17.11179-.38579-2.73141-4.87112-3.81901-10.66457-5.65582-16.08332Z"/><path d="M703.81945,648.21449c1.96163-2.96128,3.61812-6.1895,5.93529-8.83979,12.98035-14.84635,29.21257-23.27714,49.08226-24.24022,1.02701-.04982,2.07308-.00702,3.09205,.12914,5.07675,.67852,8.67984,3.19507,8.79623,8.63083,.12163,5.68053-4.36558,7.08997-8.76973,7.63684-7.353,.91304-15.18182,.06273-22.05324,2.29085-9.87988,3.20362-19.09513,8.47177-28.56039,12.93051-1.94173,.91474-3.73458,2.14572-5.59607,3.23088-.64216-.58963-1.28424-1.17933-1.9264-1.76904Z"/><path d="M852.4453,611.38338c14.15336,3.18212,29.03582,6.73672,40.2811,18.39198,1.56356,1.62057,3.09615,3.41842,4.07123,5.41385,.81253,1.66264,.78596,3.73553,1.13095,5.62676-1.93027-.00608-4.02772,.48521-5.76393-.09842-11.69771-3.93253-23.29276-8.16997-34.98531-12.11867-2.50691-.84658-5.3087-.77372-7.9178-1.37242-4.92756-1.13073-7.62838-4.17555-6.81835-9.38716,.79097-5.08915,4.53823-6.43104,10.00211-6.45591Z"/><path d="M598.63868,737.99436c14.21911-2.17989,24.55468,4.37968,33.14732,14.75392,2.55709,3.08727,1.74153,6.42812-1.25903,7.83946-1.84759,.86903-6.33355-.05529-7.21987-1.57956-5.79711-9.96923-14.36249-16.29118-24.66842-21.01382Z"/></svg></svg>